<svg xmlns="http://www.w3.org/2000/svg" version="1.1" viewBox="605.7869481765835 575.31 761.9961612284069 819.15" style="max-height: 500px" width="761.9961612284069" height="819.15">
<path transform="translate(0,0)" fill="#231F20" d="M0 0 C655.05 0 1310.1 0 1985 0 C1985 628.65 1985 1257.3 1985 1905 C1329.95 1905 674.9 1905 0 1905 C0 1276.35 0 647.7 0 0 Z"/>
<path transform="translate(1004,638)" fill="#FDFCFD" d="M0 0 C6.93 3.96 6.93 3.96 14 8 C16.89257925 9.61077918 19.78692263 11.21642992 22.6875 12.8125 C33.59001814 18.84393089 44.38117158 25.0697793 55.09765625 31.42578125 C63.53939092 36.43053127 72.0510516 41.2870316 80.625 46.0625 C88.14550192 50.25128318 95.61718371 54.48940516 102.97338867 58.96044922 C107.88752741 61.94708033 112.87051571 64.79793781 117.87109375 67.63671875 C123.27202993 70.715321 128.63297363 73.86280453 134 77 C141.36561203 81.30425665 148.74414854 85.58010918 156.16015625 89.796875 C162.65612615 93.5088578 169.10561619 97.30206543 175.56445312 101.078125 C177.04655273 101.944375 177.04655273 101.944375 178.55859375 102.828125 C179.43829834 103.3427832 180.31800293 103.85744141 181.22436523 104.38769531 C184.47337582 106.27497351 187.7376824 108.13581851 191 110 C191 175.34 191 240.68 191 308 C165.59 308 140.18 308 114 308 C114 257.18 114 206.36 114 154 C112.35 153.34 110.7 152.68 109 152 C106.83711887 150.83448192 104.69275744 149.63428468 102.5625 148.41015625 C101.65866577 147.89236855 101.65866577 147.89236855 100.73657227 147.36412048 C98.82262402 146.26660899 96.9113237 145.16457445 95 144.0625 C93.71631037 143.32588506 92.43245769 142.5895542 91.1484375 141.85351562 C86.07444978 138.94123824 81.01694886 136.01016931 76 133 C76 273.58 76 414.16 76 559 C94.14062514 548.73519909 94.14062514 548.73519909 112 538 C112.66 538 113.32 538 114 538 C114 487.18 114 436.36 114 384 C139.41 384 164.82 384 191 384 C191 449.34 191 514.68 191 582 C184.07 585.96 177.14 589.92 170 594 C165.26507197 596.76183531 160.53473434 599.52929424 155.8125 602.3125 C143.3244054 609.65563106 130.78961001 616.9152282 118.23242188 624.13964844 C109.48002835 629.17690211 100.73485497 634.22670633 91.98876953 639.27490234 C90.05234795 640.39259185 88.11583057 641.51011541 86.17919922 642.62744141 C75.29369535 648.89198907 75.29369535 648.89198907 64.5 655.3125 C61.39560756 657.19105542 58.25684555 658.96634577 55.0625 660.6875 C44.44168179 666.42808191 34.06468003 672.61776311 23.6484375 678.71875 C22.57553467 679.34652344 21.50263184 679.97429688 20.3972168 680.62109375 C18.29606582 681.85106697 16.19592705 683.08277137 14.09692383 684.31640625 C12.64709106 685.16525391 12.64709106 685.16525391 11.16796875 686.03125 C10.31485107 686.53205078 9.4617334 687.03285156 8.58276367 687.54882812 C5.77310938 689.12748255 2.88254152 690.55872924 0 692 C0 463.64 0 235.28 0 0 Z"/>
<path transform="translate(966,638)" fill="#FDFDFD" d="M0 0 C0 228.36 0 456.72 0 692 C-17.11334953 682.87288025 -17.11334953 682.87288025 -23.25 679.1875 C-24.69627831 678.32886042 -26.1429058 677.47080877 -27.58984375 676.61328125 C-28.31800293 676.18096191 -29.04616211 675.74864258 -29.79638672 675.30322266 C-33.45595375 673.13894514 -37.1328592 671.00492393 -40.8125 668.875 C-41.58408447 668.42833984 -42.35566895 667.98167969 -43.15063477 667.52148438 C-49.71465337 663.72914372 -56.29875687 659.97218083 -62.88369751 656.21633911 C-63.47895233 655.8768222 -64.07420715 655.5373053 -64.6875 655.1875 C-65.58485367 654.6756868 -65.58485367 654.6756868 -66.50033569 654.15353394 C-75.71943458 648.89350787 -84.90392627 643.57666027 -94.06567383 638.21728516 C-104.5928345 632.06112218 -115.15923832 625.97359788 -125.7265625 619.88671875 C-128.9647516 618.0203162 -132.20139438 616.15126237 -135.4375 614.28125 C-144.47378852 609.06078577 -153.51123552 603.84295572 -162.578125 598.67578125 C-163.52626572 598.13519829 -163.52626572 598.13519829 -164.49356079 597.58369446 C-167.5489197 595.84196776 -170.60531487 594.10210734 -173.66357422 592.36547852 C-174.76717285 591.73697998 -175.87077148 591.10848145 -177.0078125 590.4609375 C-177.97348145 589.91228027 -178.93915039 589.36362305 -179.93408203 588.79833984 C-180.94583496 588.2048877 -181.95758789 587.61143555 -183 587 C-183.99771431 586.53804166 -183.99771431 586.53804166 -185.01558447 586.06675082 C-190.54606382 583.23970506 -190.54606382 583.23970506 -191.73536968 579.99169672 C-192.01212795 577.44361319 -192.02811314 575.00177703 -191.96203613 572.43925476 C-191.96887153 571.47126428 -191.97570693 570.5032738 -191.98274946 569.50595027 C-191.99593878 566.25886907 -191.95191658 563.01508742 -191.90820312 559.76831055 C-191.90594678 557.44248025 -191.9072127 555.11664424 -191.91174316 552.79081726 C-191.9140418 546.47263537 -191.86695541 540.15566452 -191.8111515 533.8377645 C-191.7662553 527.90538831 -191.75816867 521.97305941 -191.74993652 516.04053626 C-191.73243289 504.29103703 -191.67920889 492.54198244 -191.60351562 480.79272461 C-191.53006896 469.38031233 -191.47344894 457.96802087 -191.43945312 446.55541992 C-191.43735134 445.85180258 -191.43524955 445.14818524 -191.43308407 444.42324617 C-191.42264367 440.89335928 -191.41253403 437.36347155 -191.40258884 433.83358324 C-191.31967191 404.55538305 -191.17220109 375.27782745 -191 346 C-165.59 346 -140.18 346 -114 346 C-114 409.36 -114 472.72 -114 538 C-112.35 538.66 -110.7 539.32 -109 540 C-107.00599348 541.0803865 -105.03064478 542.19558917 -103.0703125 543.3359375 C-101.94496094 543.98820312 -100.81960938 544.64046875 -99.66015625 545.3125 C-98.48171176 545.99989873 -97.30332676 546.68739947 -96.125 547.375 C-94.95460873 548.05500024 -93.78403731 548.73469051 -92.61328125 549.4140625 C-90.44194611 550.67467764 -88.27143842 551.93671994 -86.10205078 553.20068359 C-83.84082019 554.51228988 -81.57622943 555.81639944 -79.30612183 557.11245728 C-78.21510162 557.73534637 -77.12408142 558.35823547 -76 559 C-76.00493636 557.91331339 -76.00987273 556.82662678 -76.01495868 555.70701027 C-76.23163818 507.81920549 -76.43220158 459.93136975 -76.55046082 412.04321289 C-76.55315293 410.95584732 -76.55315293 410.95584732 -76.55589943 409.84651478 C-76.59480649 394.09256725 -76.63081896 378.33861435 -76.66384928 362.58465344 C-76.68006477 354.85900605 -76.69691996 347.13336012 -76.71411133 339.40771484 C-76.7158112 338.63891693 -76.71751106 337.87011901 -76.71926244 337.07802419 C-76.77466824 312.15530558 -76.87232083 287.23296991 -76.99186387 262.31048334 C-77.11447872 236.7010905 -77.19450849 211.09190963 -77.22089487 185.48222822 C-77.22464093 181.86573543 -77.22887421 178.24924336 -77.23340416 174.63275146 C-77.23471891 173.56507679 -77.23471891 173.56507679 -77.23606022 172.47583294 C-77.25142769 161.01412262 -77.31173463 149.55306736 -77.38881644 138.09162427 C-77.46533788 126.57106832 -77.49353494 115.05141695 -77.47551791 103.53056854 C-77.46717227 97.2869514 -77.48016056 91.04525792 -77.54967117 84.80198097 C-77.61282923 79.08766538 -77.61620986 73.3765705 -77.57168563 67.66210818 C-77.5661816 65.59327416 -77.58277544 63.52424114 -77.62348137 61.45580029 C-77.90289109 46.38349054 -77.90289109 46.38349054 -74.73340677 42.41351247 C-71.23343719 39.38045954 -67.28254805 37.71983129 -63 36 C-61.25236364 35.02129648 -59.51675969 34.02013324 -57.8046875 32.98046875 C-56.16260906 32.04745102 -54.51936249 31.11648638 -52.875 30.1875 C-51.04794274 29.14884962 -49.22112471 28.10977832 -47.39453125 27.0703125 C-46.49041504 26.55629883 -45.58629883 26.04228516 -44.65478516 25.51269531 C-40.61530438 23.2110011 -36.5867644 20.89067836 -32.5625 18.5625 C-31.80775391 18.12599121 -31.05300781 17.68948242 -30.27539062 17.23974609 C-25.82206354 14.65692856 -21.38495962 12.04800779 -16.95703125 9.421875 C-15.43903931 8.52166626 -15.43903931 8.52166626 -13.89038086 7.60327148 C-11.90682379 6.42527852 -9.92452676 5.24516081 -7.94360352 4.06274414 C-7.05213623 3.53285889 -6.16066895 3.00297363 -5.2421875 2.45703125 C-4.4466748 1.98241455 -3.65116211 1.50779785 -2.83154297 1.01879883 C-1 0 -1 0 0 0 Z"/>
</svg>